<?xml version="1.0" encoding="iso-8859-1"?>
<!-- Uploaded to: SVG Repo, www.svgrepo.com, Generator: SVG Repo Mixer Tools -->
<svg fill="#000000" height="17px" width="20px" version="1.1" id="Layer_1" xmlns="http://www.w3.org/2000/svg" xmlns:xlink="http://www.w3.org/1999/xlink" 
	 viewBox="0 0 512 512" xml:space="preserve">
<g>
	<g>
		<path d="M394.667,348.181v-8.635c60.468-10.184,106.667-62.889,106.667-126.213S455.135,97.304,394.667,87.12V21.333
			C394.667,9.557,385.131,0,373.333,0H288v85.333h21.333v128H224v-128h21.333V0H74.667C62.869,0,53.333,9.557,53.333,21.333v326.848
			c0,47.955,20.71,91.165,53.66,121.152H32c-11.797,0-21.333,9.557-21.333,21.333S20.203,512,32,512h185.152h13.696H416
			c11.797,0,21.333-9.557,21.333-21.333s-9.536-21.333-21.333-21.333h-74.993C373.956,439.346,394.667,396.136,394.667,348.181z
			 M458.667,213.333c0,39.697-27.232,73.14-64,82.634V130.699C431.435,140.193,458.667,173.636,458.667,213.333z"/>
	</g>
</g>
</svg>